<svg xmlns="http://www.w3.org/2000/svg" xmlns:xlink="http://www.w3.org/1999/xlink" width="137px" height="108px" viewBox="0 0 137 108"><title>fast-turnaround-icn</title><g id="Symbols" stroke="none" stroke-width="1" fill="none" fill-rule="evenodd" stroke-linecap="round"><g id="Why-Trust-Us-/-Desktop" transform="translate(-653.000000, -194.000000)"><g id="fast-turnaround-icn" transform="translate(654.000000, 195.000000)"><polyline id="Stroke-1" stroke="#1E2740" stroke-width="2.5" stroke-linejoin="round" points="81.6714 18.1939 81.6714 53.3569 103.0864 67.7849"></polyline><g id="Group-16" transform="translate(0.000000, 0.747000)"><path d="M133.9429,52.61 C133.9429,81.388 110.6139,104.717 81.8359,104.717 C53.0569,104.717 29.7279,81.388 29.7279,52.61 C29.7279,23.832 53.0569,0.503 81.8359,0.503 C110.6139,0.503 133.9429,23.832 133.9429,52.61 Z" id="Stroke-2" stroke="#1E2740" stroke-width="2.5"></path><path d="M81.8354,9.608 C105.5854,9.608 124.8384,28.861 124.8384,52.61 C124.8384,60.199 122.8724,67.329 119.4224,73.517" id="Stroke-4" stroke="#FF4B5A" stroke-width="2.063"></path><line x1="61.2485" y1="22.4869" x2="31.6895" y2="22.4869" id="Stroke-6" stroke="#1E2740" stroke-width="2.5" stroke-linejoin="round"></line><line x1="30.0425" y1="42.9948" x2="0.4845" y2="42.9948" id="Stroke-8" stroke="#1E2740" stroke-width="2.5" stroke-linejoin="round"></line><line x1="47.3384" y1="84.2252" x2="16.7044" y2="84.2252" id="Stroke-10" stroke="#1E2740" stroke-width="2.5" stroke-linejoin="round"></line><line x1="83.9077" y1="104.7496" x2="0.2507" y2="104.7496" id="Stroke-12" stroke="#1E2740" stroke-width="2.5" stroke-linejoin="round"></line><line x1="24.8345" y1="22.4869" x2="13.2175" y2="22.4869" id="Stroke-14" stroke="#1E2740" stroke-width="2.5" stroke-linejoin="round"></line></g></g></g></g></svg>