<svg xmlns="http://www.w3.org/2000/svg" xmlns:xlink="http://www.w3.org/1999/xlink" width="118px" height="133px" viewBox="0 0 118 133"><title>industrial-mf-icon</title><g id="Symbols" stroke="none" stroke-width="1" fill="none" fill-rule="evenodd"><g id="Why-Trust-Us-/-Desktop" transform="translate(-202.000000, -177.000000)" stroke-width="2.5"><g id="industrial-mf-icon" transform="translate(203.000000, 178.000000)"><path d="M115.0962,0.2497 L115.0962,9.7907 C115.0962,12.9017 112.5512,15.4467 109.4412,15.4467 L5.9052,15.4467 C2.7952,15.4467 0.2502,12.9017 0.2502,9.7907 L0.2502,0.2497" id="Stroke-1" stroke="#1E2740" stroke-linecap="round"></path><path d="M64.4624,15.9929 L64.4624,24.8239 C64.4624,26.8849 62.7764,28.5709 60.7154,28.5709 L54.5084,28.5709 C52.4484,28.5709 50.7614,26.8849 50.7614,24.8239 L50.7614,15.9929" id="Stroke-3" stroke="#1E2740" stroke-linecap="round"></path><line x1="57.9331" y1="90.6325" x2="57.9331" y2="117.0005" id="Stroke-5" stroke="#1E2740" stroke-linecap="round"></line><polyline id="Stroke-7" stroke="#1E2740" stroke-linecap="round" stroke-linejoin="round" points="64.2085 55.2018 92.0225 71.0968 58.1135 90.7768 23.9775 71.1408 51.3575 55.4428"></polyline><polyline id="Stroke-9" stroke="#1E2740" points="23.9775 71.1413 23.9775 110.2113 57.9115 130.2493 91.9465 110.2113 91.9465 71.2423"></polyline><line x1="91.8364" y1="99.4206" x2="112.1534" y2="111.1016" id="Stroke-11" stroke="#1E2740" stroke-linecap="round"></line><line x1="23.3588" y1="99.4206" x2="3.0428" y2="111.1016" id="Stroke-13" stroke="#1E2740" stroke-linecap="round"></line><path d="M58.6284,35.9362 C58.6284,36.3542 58.2904,36.6922 57.8724,36.6922 C57.4554,36.6922 57.1174,36.3542 57.1174,35.9362 C57.1174,35.5192 57.4554,35.1802 57.8724,35.1802 C58.2904,35.1802 58.6284,35.5192 58.6284,35.9362 Z" id="Stroke-15" stroke="#FF4B5A" stroke-linecap="round"></path><path d="M58.6284,44.3415 C58.6284,44.7585 58.2904,45.0965 57.8724,45.0965 C57.4554,45.0965 57.1174,44.7585 57.1174,44.3415 C57.1174,43.9235 57.4554,43.5855 57.8724,43.5855 C58.2904,43.5855 58.6284,43.9235 58.6284,44.3415 Z" id="Stroke-17" stroke="#FF4B5A" stroke-linecap="round"></path><path d="M58.6284,52.653 C58.6284,53.07 58.2904,53.409 57.8724,53.409 C57.4554,53.409 57.1174,53.07 57.1174,52.653 C57.1174,52.235 57.4554,51.897 57.8724,51.897 C58.2904,51.897 58.6284,52.235 58.6284,52.653 Z" id="Stroke-19" stroke="#FF4B5A" stroke-linecap="round"></path><path d="M58.6284,60.9645 C58.6284,61.3815 58.2904,61.7205 57.8724,61.7205 C57.4554,61.7205 57.1174,61.3815 57.1174,60.9645 C57.1174,60.5475 57.4554,60.2085 57.8724,60.2085 C58.2904,60.2085 58.6284,60.5475 58.6284,60.9645 Z" id="Stroke-21" stroke="#FF4B5A" stroke-linecap="round"></path><path d="M58.6284,69.2761 C58.6284,69.6931 58.2904,70.0321 57.8724,70.0321 C57.4554,70.0321 57.1174,69.6931 57.1174,69.2761 C57.1174,68.8591 57.4554,68.5201 57.8724,68.5201 C58.2904,68.5201 58.6284,68.8591 58.6284,69.2761 Z" id="Stroke-23" stroke="#FF4B5A" stroke-linecap="round"></path></g></g></g></svg>