<svg xmlns="http://www.w3.org/2000/svg" xmlns:xlink="http://www.w3.org/1999/xlink" width="155px" height="141px" viewBox="0 0 155 141"><title>reliable-quality-icn</title><g id="Symbols" stroke="none" stroke-width="1" fill="none" fill-rule="evenodd" stroke-linecap="round"><g id="Why-Trust-Us-/-Desktop" transform="translate(-1104.000000, -171.000000)" stroke-width="2.5"><g id="reliable-quality-icn" transform="translate(1105.000000, 172.000000)"><line x1="140.3546" y1="100.9299" x2="152.1376" y2="107.7339" id="Stroke-1" stroke="#FF4B5A"></line><line x1="114.4337" y1="116.1809" x2="126.2167" y2="122.9839" id="Stroke-3" stroke="#FF4B5A"></line><g id="Group-8" transform="translate(88.000000, 104.372000)" stroke="#FF4B5A"><line x1="57.8887" y1="0.1702" x2="6.5847" y2="30.3542" id="Stroke-4"></line><line x1="0.7032" y1="26.9475" x2="12.4862" y2="33.7505" id="Stroke-6"></line></g><line x1="37.8047" y1="23.4904" x2="37.8047" y2="37.8214" id="Stroke-9" stroke="#1E2740"></line><line x1="49.0245" y1="17.383" x2="49.0245" y2="44.164" id="Stroke-10" stroke="#1E2740"></line><line x1="60.3467" y1="10.8049" x2="60.3467" y2="50.9779" id="Stroke-11" stroke="#1E2740"></line><line x1="71.9288" y1="4.1086" x2="71.9288" y2="57.5556" id="Stroke-12" stroke="#1E2740"></line><line x1="83.9561" y1="3.5217" x2="83.9561" y2="58.0257" id="Stroke-13" stroke="#1E2740"></line><line x1="95.5167" y1="10.5695" x2="95.5167" y2="51.2125" id="Stroke-14" stroke="#1E2740"></line><line x1="78.0655" y1="61.216" x2="78.0655" y2="122.3" id="Stroke-15" stroke="#1E2740"></line><line x1="106.7335" y1="17.1477" x2="106.7335" y2="44.8697" id="Stroke-16" stroke="#1E2740"></line><line x1="118.0508" y1="23.1379" x2="118.0508" y2="38.2909" id="Stroke-17" stroke="#1E2740"></line><polygon id="Stroke-18" stroke="#1E2740" stroke-linejoin="round" points="78.3467 61.4416 24.9687 30.7376 78.1437 0.2506 131.3697 30.6676"></polygon><polyline id="Stroke-20" stroke="#1E2740" points="24.9688 30.7375 24.9688 91.8315 78.0318 123.1645 131.2518 91.8315 131.2518 30.8955"></polyline><line x1="7.4424" y1="21.5793" x2="7.4424" y2="81.1033" id="Stroke-21" stroke="#FF4B5A"></line><g id="Group-28" transform="translate(0.000000, 16.372000)" stroke="#FF4B5A"><line x1="14.4493" y1="8.593" x2="0.2503" y2="0.479" id="Stroke-22"></line><line x1="14.4493" y1="38.9348" x2="0.2503" y2="30.8218" id="Stroke-24"></line><line x1="14.4493" y1="68.8548" x2="0.2503" y2="60.7418" id="Stroke-26"></line></g></g></g></g></svg>