<?xml version="1.0" encoding="utf-8"?>
<!-- Generator: Adobe Illustrator 22.1.0, SVG Export Plug-In . SVG Version: 6.00 Build 0)  -->
<svg version="1.1" id="Layer_1" xmlns="http://www.w3.org/2000/svg" xmlns:xlink="http://www.w3.org/1999/xlink" x="0px" y="0px"
	 viewBox="0 0 600 85.964" style="enable-background:new 0 0 600 85.964;" xml:space="preserve">
<metadata><?xpacket begin="﻿" id="W5M0MpCehiHzreSzNTczkc9d"?>
<x:xmpmeta xmlns:x="adobe:ns:meta/" x:xmptk="Adobe XMP Core 5.6-c143 79.161356, 2017/09/07-01:11:22        ">
   <rdf:RDF xmlns:rdf="http://www.w3.org/1999/02/22-rdf-syntax-ns#">
      <rdf:Description rdf:about=""/>
   </rdf:RDF>
</x:xmpmeta>
                                                                                                    
                                                                                                    
                                                                                                    
                                                                                                    
                                                                                                    
                                                                                                    
                                                                                                    
                                                                                                    
                                                                                                    
                                                                                                    
                                                                                                    
                                                                                                    
                                                                                                    
                                                                                                    
                                                                                                    
                                                                                                    
                                                                                                    
                                                                                                    
                                                                                                    
                                                                                                    
                           
<?xpacket end="w"?></metadata>
<style type="text/css">
	.st0{fill:#FF4B5A;}
</style>
<g>
	<path class="st0" d="M71.029,35.073c-2.761-0.829-5.876-1.519-9.236-2.071c-2.194-0.368-4.572-0.66-7.088-0.874h-0.016
		c-0.394-0.035-0.787-0.069-1.18-0.104V32.02c-0.997-0.061-2.01-0.138-3.038-0.184c-4.771-0.291-8.653-0.629-11.538-0.997
		c-2.854-0.353-5.048-0.736-6.505-1.166c-1.596-0.476-2.194-0.997-2.409-1.258c-0.353-0.445-0.506-0.997-0.506-1.688
		c0-1.319,0.721-2.424,2.24-3.329c1.687-1.028,5.738-1.534,10.371-1.534c4.986,0,8.714,0.568,11.675,1.672
		c2.44,0.92,3.513,2.562,4.296,4.971h28.721c-0.66-9.067-7.073-17.751-14.207-21.955C65.229,2.194,54.95,0,42.016,0
		C29.282,0,19.294,2.516,12.359,7.487C5.302,12.535,1.712,19.546,1.712,28.276c0,8.469,2.946,14.652,8.76,18.396
		c5.616,3.621,14.268,5.861,25.729,6.674c6.766,0.445,11.998,0.89,15.573,1.32c4.235,0.521,6.091,1.212,6.919,1.718
		c0.445,0.261,0.782,0.598,1.028,1.043c0.23,0.399,0.337,0.844,0.368,1.366v0.199c0,1.596-0.798,2.685-2.531,3.452
		c-1.995,0.874-5.939,1.433-10.541,1.541c-0.659,0.015-2.63,0.006-2.906-0.009c-3.781-0.16-7.158-0.488-9.582-1.624
		c-2.363-1.135-3.792-2.608-4.743-5.615H0c0.346,6.536,2.586,11.415,5.762,15.695c3.375,4.542,8.377,7.963,14.851,10.157
		c3.268,1.12,7.058,1.964,11.261,2.531c4.189,0.552,8.945,0.844,14.131,0.844c9.512,0,17.444-1.197,23.55-3.56
		c6.198-2.393,10.817-5.784,13.716-10.049c1.534-2.148,2.685-4.541,3.422-7.088c0.721-2.516,1.089-5.247,1.089-8.132
		c0-5.83-1.412-10.571-4.173-14.115C80.848,39.507,76.629,36.837,71.029,35.073z"/>
	<polygon class="st0" points="149.764,30.881 121.157,30.881 121.157,2.314 93.368,2.314 93.368,83.647 121.157,83.647 
		121.157,55.594 149.764,55.594 149.764,83.647 177.344,83.647 177.344,2.314 149.764,2.314 	"/>
	<polygon class="st0" points="403.043,51.592 446.256,51.592 446.256,33.478 403.043,33.478 403.043,25.268 451.382,25.268 
		451.382,2.309 376.614,2.309 376.614,83.642 452.952,83.642 452.952,59.911 403.043,59.911 	"/>
	<path class="st0" d="M360.874,10.28c-6.337-5.262-16.8-7.932-31.099-7.932h-41.363v81.346h26.742V64.746h15.557
		c13.318,0.046,23.366-2.455,29.872-7.518c6.582-5.14,9.927-12.857,9.927-22.968C370.509,23.674,367.256,15.604,360.874,10.28z
		 M340.11,40.505c-2.09,1.19-5.792,1.8-11.134,1.8h-13.822V25.771h13.517c5.125,0,8.826,0.537,11.135,1.597
		c2.294,1.06,3.426,3.382,3.426,6.925C343.232,37.239,342.201,39.301,340.11,40.505z"/>
	<path class="st0" d="M217.78,2.35l-34.803,81.352h28.361l5.734-14.132h31.961l5.734,14.132h28.361L248.326,2.35H217.78z
		 M224.751,49.931l6.298-16.028l2.004-12.213l2.004,12.213l6.299,16.028H224.751z"/>
	<path class="st0" d="M516.424,2.187l-11.04,81.376l11.449-0.002l0.772-9.035h8.42l0.772,9.035l11.449,0.002l-11.04-81.376H516.424z
		 M518.465,64.463l2.879-26.421l0.399-13.954h0.143l0.399,13.954l2.879,26.421H518.465z"/>
	<path class="st0" d="M494.752,2.183l-1.918,47.645l-0.237,13.366h-0.13l-0.456-13.474l-4.826-47.536h-8.343l-4.826,47.536
		l-0.456,13.474h-0.13l-0.237-13.366l-1.919-47.645h-11.268l7.283,81.379h9.929l5.267-47.401l0.443-12.968h0.171
		c0.12,3.523,0.443,12.968,0.443,12.968l5.267,47.401h9.929l7.283-81.379H494.752z"/>
	<path class="st0" d="M552.389,30.873l-0.361,14.881h-0.122c-0.089-3.674-0.362-14.881-0.362-14.881l-4.073-28.69h-11.575
		L546.097,51.6v31.961h11.739V51.6l10.201-49.418h-11.575L552.389,30.873z"/>
	<path class="st0" d="M597.743,44.215c-1.472-1.944-3.887-4.026-7.161-6.179c-2.372-1.708-4.109-2.988-5.31-3.913
		c-0.854-0.655-1.983-1.711-2.362-2.35c-0.397-0.67-0.552-1.248-0.552-3.122V16.581c0-1.859,0.257-3.167,0.762-3.883
		c0.474-0.669,1.345-1.009,2.591-1.009c1.16,0,1.937,0.325,2.371,0.994c0.466,0.722,0.702,2.082,0.702,4.039v15.284h10.935V14.331
		c-0.096-3.921-1.291-7.08-3.552-9.389c-2.267-2.315-5.738-3.489-10.316-3.489c-4.762,0-8.442,1.243-10.939,3.692
		c-2.501,2.451-3.768,5.922-3.768,10.316v14.25c0.094,3.807,0.948,6.789,2.538,8.859c1.562,2.038,4.107,4.273,7.599,6.611
		c2.124,1.423,4.877,3.305,4.877,3.305c0.845,0.603,1.333,0.968,1.853,1.716c0.363,0.521,0.557,1.013,0.679,1.669
		c0.096,0.511,0.094,1.587,0.093,2.374l0,14.143c0,1.869-0.238,3.207-0.707,3.977c-0.429,0.701-1.367,1.056-2.786,1.056
		c-1.253,0-2.072-0.345-2.506-1.056c-0.469-0.766-0.707-2.151-0.707-4.116V51.144h-11.355v18.225c0,5.228,1.195,9.097,3.552,11.5
		c2.359,2.407,6.064,3.628,11.016,3.628c4.854,0,8.558-1.219,11.009-3.623C598.756,78.47,600,74.598,600,69.369V53.222
		C600,49.227,599.241,46.196,597.743,44.215z"/>
</g>
</svg>
